<svg xmlns="http://www.w3.org/2000/svg" style="display: none;">
    <symbol id="block" viewBox="0 0 511.973 511.973">
        <title>block</title>
        <path d="m255.989 0-221.693 127.993v255.985l221.693 127.994 221.688-127.994v-255.985zm176.683 136.651-176.683 101.965-176.688-101.965 176.688-102.01zm-368.376 25.977 176.693 101.969v204.074l-176.693-102.013zm206.693 306.043v-204.074l176.688-101.968v204.03z" />
    </symbol>
    <symbol id="block-1" viewBox="0 0 512 512">
        <title>block-1</title>
        <path d="m256.002 242.913 210.412-121.43-210.412-121.483-210.416 121.483z" />
        <path d="m240.949 268.986-210.415-121.429v242.96l210.415 121.483z" />
        <path d="m271.056 268.986v243.014l210.41-121.483v-242.96z" />
    </symbol>
    <symbol id="cylinder" viewBox="0 0 512 512">
        <title>cylinder</title>
        <path d="m85.333 77.888v391.445c0 41.472 153.216 42.667 170.667 42.667s170.667-1.195 170.667-42.667v-391.445c-28.48 19.093-85.44 28.779-170.667 28.779s-142.165-9.686-170.667-28.779z" />
        <path d="m256 85.333c105.28 0 170.667-16.363 170.667-42.667 0-1.621-.405-3.115-1.067-4.48-9.728-33.045-123.947-37.525-160.107-38.101-3.157-.021-6.25-.085-9.493-.085s-6.336.064-9.515.085c-36.16.576-150.378 5.035-160.106 38.102-.64 1.365-1.045 2.859-1.045 4.48-.001 26.304 65.386 42.666 170.666 42.666z" />
    </symbol>
    <symbol id="cylinder-1" viewBox="0 0 512 512">
        <title>cylinder-1</title>
        <path d="M425.621,38.187C414.763,1.216,272.789,0,256,0S97.237,1.216,86.379,38.187c-0.64,1.387-1.045,2.859-1.045,4.48v426.667 c0,1.621,0.405,3.093,1.045,4.48C97.237,510.784,239.211,512,256,512s158.763-1.216,169.621-38.187 c0.64-1.387,1.045-2.859,1.045-4.48V42.667C426.667,41.045,426.261,39.573,425.621,38.187z M256,21.333 c87.723,0,137.685,13.248,148.075,21.333C393.685,50.752,343.723,64,256,64S118.315,50.752,107.925,42.667 C118.315,34.581,168.277,21.333,256,21.333z M405.333,467.989c-6.101,7.851-56.448,22.677-149.333,22.677 c-93.995,0-144.619-15.211-149.333-21.333V65.429C149.312,84.544,242.603,85.333,256,85.333s106.688-0.789,149.333-19.904V467.989 z" />
    </symbol>
    <symbol id="sphere" viewBox="0 0 512 512">
        <title>sphere</title>
        <path d="M256,0C114.837,0,0,114.837,0,256s114.837,256,256,256s256-114.837,256-256S397.163,0,256,0z M256,21.333 c129.387,0,234.667,105.28,234.667,234.667c0,40.363-96.384,85.333-234.667,85.333c-28.629,0-55.339-2.005-79.893-5.44 c-3.435-24.555-5.44-51.264-5.44-79.893C170.667,117.717,215.637,21.333,256,21.333z M208.512,26.176 C173.184,67.435,149.333,153.707,149.333,256c0,26.688,1.621,52.309,4.651,76.309C72.683,317.205,21.333,285.419,21.333,256 C21.333,142.869,101.824,48.192,208.512,26.176z M26.176,303.488c27.072,23.168,73.429,41.429,131.136,51.2 c9.792,57.707,28.032,104.064,51.2,131.136C117.163,466.965,45.035,394.837,26.176,303.488z M256,490.667 c-29.419,0-61.205-51.349-76.309-132.651c24,3.029,49.621,4.651,76.309,4.651c102.293,0,188.565-23.851,229.824-59.179 C463.808,410.176,369.131,490.667,256,490.667z" />
    </symbol>
    <symbol id="sphere-1" viewBox="0 0 512 512">
        <title>sphere-1</title>
        <path d="m193.771 318.229c20.565 1.152 41.514 1.771 62.229 1.771 123.285 0 256-20.032 256-64 0-141.163-114.837-256-256-256-43.989 0-64 132.693-64 256 0 20.715.619 41.664 1.771 62.229z" />
        <path d="m172.181 316.8c-1.152-23.04-1.515-44.16-1.515-60.8 0-65.173 5.248-197.525 44.245-252.395-121.663 19.776-214.911 125.248-214.911 252.395 0 33.963 79.275 53.589 172.181 60.8z" />
        <path d="m195.2 339.819c7.189 92.906 26.816 172.181 60.8 172.181 127.147 0 232.619-93.269 252.395-214.912-54.869 38.997-187.2 44.245-252.395 44.245-16.64 0-37.76-.362-60.8-1.514z" />
        <path d="m3.605 297.088c17.579 108.224 103.061 193.707 211.285 211.285-25.963-36.523-37.013-107.2-41.408-169.856-62.655-4.394-133.333-15.445-169.877-41.429z" />
    </symbol>
</svg>